<mxfile host="app.diagrams.net" modified="2023-08-15T22:01:39.207Z" agent="Mozilla/5.0 (Windows NT 10.0; Win64; x64) AppleWebKit/537.36 (KHTML, like Gecko) Chrome/115.0.0.0 Safari/537.36" etag="PYiBNDA_3mEcST3piOQc" version="21.6.8" type="device">
  <diagram id="C5RBs43oDa-KdzZeNtuy" name="Page-1">
    <mxGraphModel dx="1114" dy="570" grid="1" gridSize="10" guides="1" tooltips="1" connect="1" arrows="1" fold="1" page="1" pageScale="1" pageWidth="827" pageHeight="1169" math="0" shadow="0">
      <root>
        <mxCell id="WIyWlLk6GJQsqaUBKTNV-0" />
        <mxCell id="WIyWlLk6GJQsqaUBKTNV-1" parent="WIyWlLk6GJQsqaUBKTNV-0" />
        <mxCell id="FXYuh853XcJQoHmmgZk7-1" value="&amp;lt;&amp;lt;abstract&amp;gt;&amp;gt;" style="swimlane;fontStyle=1;align=center;verticalAlign=top;childLayout=stackLayout;horizontal=1;startSize=26;horizontalStack=0;resizeParent=1;resizeParentMax=0;resizeLast=0;collapsible=1;marginBottom=0;whiteSpace=wrap;html=1;" vertex="1" parent="WIyWlLk6GJQsqaUBKTNV-1">
          <mxGeometry x="10" y="40" width="160" height="120" as="geometry" />
        </mxCell>
        <mxCell id="FXYuh853XcJQoHmmgZk7-2" value="ReprodutorMusical" style="text;strokeColor=none;fillColor=none;align=left;verticalAlign=top;spacingLeft=4;spacingRight=4;overflow=hidden;rotatable=0;points=[[0,0.5],[1,0.5]];portConstraint=eastwest;whiteSpace=wrap;html=1;" vertex="1" parent="FXYuh853XcJQoHmmgZk7-1">
          <mxGeometry y="26" width="160" height="26" as="geometry" />
        </mxCell>
        <mxCell id="FXYuh853XcJQoHmmgZk7-3" value="" style="line;strokeWidth=1;fillColor=none;align=left;verticalAlign=middle;spacingTop=-1;spacingLeft=3;spacingRight=3;rotatable=0;labelPosition=right;points=[];portConstraint=eastwest;strokeColor=inherit;" vertex="1" parent="FXYuh853XcJQoHmmgZk7-1">
          <mxGeometry y="52" width="160" height="8" as="geometry" />
        </mxCell>
        <mxCell id="FXYuh853XcJQoHmmgZk7-4" value="+ tocar(): void&lt;br&gt;+ pausar(): void&lt;br&gt;+ selecionarMusica(): void" style="text;strokeColor=none;fillColor=none;align=left;verticalAlign=top;spacingLeft=4;spacingRight=4;overflow=hidden;rotatable=0;points=[[0,0.5],[1,0.5]];portConstraint=eastwest;whiteSpace=wrap;html=1;" vertex="1" parent="FXYuh853XcJQoHmmgZk7-1">
          <mxGeometry y="60" width="160" height="60" as="geometry" />
        </mxCell>
        <mxCell id="FXYuh853XcJQoHmmgZk7-5" value="&amp;lt;&amp;lt;abstract&amp;gt;&amp;gt;" style="swimlane;fontStyle=1;align=center;verticalAlign=top;childLayout=stackLayout;horizontal=1;startSize=26;horizontalStack=0;resizeParent=1;resizeParentMax=0;resizeLast=0;collapsible=1;marginBottom=0;whiteSpace=wrap;html=1;" vertex="1" parent="WIyWlLk6GJQsqaUBKTNV-1">
          <mxGeometry x="520" y="40" width="160" height="120" as="geometry" />
        </mxCell>
        <mxCell id="FXYuh853XcJQoHmmgZk7-6" value="Browser" style="text;strokeColor=none;fillColor=none;align=left;verticalAlign=top;spacingLeft=4;spacingRight=4;overflow=hidden;rotatable=0;points=[[0,0.5],[1,0.5]];portConstraint=eastwest;whiteSpace=wrap;html=1;" vertex="1" parent="FXYuh853XcJQoHmmgZk7-5">
          <mxGeometry y="26" width="160" height="26" as="geometry" />
        </mxCell>
        <mxCell id="FXYuh853XcJQoHmmgZk7-7" value="" style="line;strokeWidth=1;fillColor=none;align=left;verticalAlign=middle;spacingTop=-1;spacingLeft=3;spacingRight=3;rotatable=0;labelPosition=right;points=[];portConstraint=eastwest;strokeColor=inherit;" vertex="1" parent="FXYuh853XcJQoHmmgZk7-5">
          <mxGeometry y="52" width="160" height="8" as="geometry" />
        </mxCell>
        <mxCell id="FXYuh853XcJQoHmmgZk7-8" value="+ exibirPagina(): void&lt;br&gt;+ adicionarPagina(): void&lt;br&gt;+ adicionarNovaAba(): void" style="text;strokeColor=none;fillColor=none;align=left;verticalAlign=top;spacingLeft=4;spacingRight=4;overflow=hidden;rotatable=0;points=[[0,0.5],[1,0.5]];portConstraint=eastwest;whiteSpace=wrap;html=1;" vertex="1" parent="FXYuh853XcJQoHmmgZk7-5">
          <mxGeometry y="60" width="160" height="60" as="geometry" />
        </mxCell>
        <mxCell id="FXYuh853XcJQoHmmgZk7-9" value="&amp;lt;&amp;lt;abstract&amp;gt;&amp;gt;" style="swimlane;fontStyle=1;align=center;verticalAlign=top;childLayout=stackLayout;horizontal=1;startSize=26;horizontalStack=0;resizeParent=1;resizeParentMax=0;resizeLast=0;collapsible=1;marginBottom=0;whiteSpace=wrap;html=1;" vertex="1" parent="WIyWlLk6GJQsqaUBKTNV-1">
          <mxGeometry x="200" y="40" width="160" height="110" as="geometry" />
        </mxCell>
        <mxCell id="FXYuh853XcJQoHmmgZk7-10" value="AparelhoTelefonico" style="text;strokeColor=none;fillColor=none;align=left;verticalAlign=top;spacingLeft=4;spacingRight=4;overflow=hidden;rotatable=0;points=[[0,0.5],[1,0.5]];portConstraint=eastwest;whiteSpace=wrap;html=1;" vertex="1" parent="FXYuh853XcJQoHmmgZk7-9">
          <mxGeometry y="26" width="160" height="26" as="geometry" />
        </mxCell>
        <mxCell id="FXYuh853XcJQoHmmgZk7-11" value="" style="line;strokeWidth=1;fillColor=none;align=left;verticalAlign=middle;spacingTop=-1;spacingLeft=3;spacingRight=3;rotatable=0;labelPosition=right;points=[];portConstraint=eastwest;strokeColor=inherit;" vertex="1" parent="FXYuh853XcJQoHmmgZk7-9">
          <mxGeometry y="52" width="160" height="8" as="geometry" />
        </mxCell>
        <mxCell id="FXYuh853XcJQoHmmgZk7-12" value="+ ligar(): void&lt;br&gt;+ atender(): void&lt;br&gt;+ iniciarCorreioVoz(): void" style="text;strokeColor=none;fillColor=none;align=left;verticalAlign=top;spacingLeft=4;spacingRight=4;overflow=hidden;rotatable=0;points=[[0,0.5],[1,0.5]];portConstraint=eastwest;whiteSpace=wrap;html=1;" vertex="1" parent="FXYuh853XcJQoHmmgZk7-9">
          <mxGeometry y="60" width="160" height="50" as="geometry" />
        </mxCell>
        <mxCell id="FXYuh853XcJQoHmmgZk7-14" value="&lt;p style=&quot;margin:0px;margin-top:4px;text-align:center;&quot;&gt;&lt;br&gt;&lt;b&gt;Vlc&lt;/b&gt;&lt;/p&gt;" style="verticalAlign=top;align=left;overflow=fill;fontSize=12;fontFamily=Helvetica;html=1;whiteSpace=wrap;" vertex="1" parent="WIyWlLk6GJQsqaUBKTNV-1">
          <mxGeometry x="10" y="230" width="140" height="60" as="geometry" />
        </mxCell>
        <mxCell id="FXYuh853XcJQoHmmgZk7-15" value="&lt;p style=&quot;margin:0px;margin-top:4px;text-align:center;&quot;&gt;iPhone2007&lt;/p&gt;" style="verticalAlign=top;align=left;overflow=fill;fontSize=12;fontFamily=Helvetica;html=1;whiteSpace=wrap;" vertex="1" parent="WIyWlLk6GJQsqaUBKTNV-1">
          <mxGeometry x="190" y="230" width="140" height="60" as="geometry" />
        </mxCell>
        <mxCell id="FXYuh853XcJQoHmmgZk7-18" value="&lt;p style=&quot;margin:0px;margin-top:4px;text-align:center;&quot;&gt;Safari&lt;/p&gt;" style="verticalAlign=top;align=left;overflow=fill;fontSize=12;fontFamily=Helvetica;html=1;whiteSpace=wrap;" vertex="1" parent="WIyWlLk6GJQsqaUBKTNV-1">
          <mxGeometry x="370" y="230" width="140" height="60" as="geometry" />
        </mxCell>
        <mxCell id="FXYuh853XcJQoHmmgZk7-19" value="&lt;p style=&quot;margin:0px;margin-top:4px;text-align:center;&quot;&gt;Opera&lt;/p&gt;" style="verticalAlign=top;align=left;overflow=fill;fontSize=12;fontFamily=Helvetica;html=1;whiteSpace=wrap;" vertex="1" parent="WIyWlLk6GJQsqaUBKTNV-1">
          <mxGeometry x="530" y="230" width="140" height="60" as="geometry" />
        </mxCell>
        <mxCell id="FXYuh853XcJQoHmmgZk7-20" value="&lt;p style=&quot;margin:0px;margin-top:4px;text-align:center;&quot;&gt;Chrome&lt;/p&gt;" style="verticalAlign=top;align=left;overflow=fill;fontSize=12;fontFamily=Helvetica;html=1;whiteSpace=wrap;" vertex="1" parent="WIyWlLk6GJQsqaUBKTNV-1">
          <mxGeometry x="687" y="230" width="140" height="60" as="geometry" />
        </mxCell>
        <mxCell id="FXYuh853XcJQoHmmgZk7-21" value="Extends" style="endArrow=block;endSize=16;endFill=0;html=1;rounded=0;exitX=0.5;exitY=0;exitDx=0;exitDy=0;entryX=-0.019;entryY=-0.192;entryDx=0;entryDy=0;entryPerimeter=0;" edge="1" parent="WIyWlLk6GJQsqaUBKTNV-1" source="FXYuh853XcJQoHmmgZk7-18" target="FXYuh853XcJQoHmmgZk7-8">
          <mxGeometry width="160" relative="1" as="geometry">
            <mxPoint x="370" y="130" as="sourcePoint" />
            <mxPoint x="530" y="130" as="targetPoint" />
          </mxGeometry>
        </mxCell>
        <mxCell id="FXYuh853XcJQoHmmgZk7-22" value="Extends" style="endArrow=block;endSize=16;endFill=0;html=1;rounded=0;entryX=0.513;entryY=1.192;entryDx=0;entryDy=0;entryPerimeter=0;exitX=0.5;exitY=0;exitDx=0;exitDy=0;exitPerimeter=0;" edge="1" parent="WIyWlLk6GJQsqaUBKTNV-1" source="FXYuh853XcJQoHmmgZk7-19" target="FXYuh853XcJQoHmmgZk7-8">
          <mxGeometry width="160" relative="1" as="geometry">
            <mxPoint x="590" y="220" as="sourcePoint" />
            <mxPoint x="750" y="220" as="targetPoint" />
          </mxGeometry>
        </mxCell>
        <mxCell id="FXYuh853XcJQoHmmgZk7-23" value="Extends" style="endArrow=block;endSize=16;endFill=0;html=1;rounded=0;entryX=1.013;entryY=1.077;entryDx=0;entryDy=0;entryPerimeter=0;exitX=0.5;exitY=0;exitDx=0;exitDy=0;" edge="1" parent="WIyWlLk6GJQsqaUBKTNV-1" source="FXYuh853XcJQoHmmgZk7-20" target="FXYuh853XcJQoHmmgZk7-6">
          <mxGeometry width="160" relative="1" as="geometry">
            <mxPoint x="730" y="220" as="sourcePoint" />
            <mxPoint x="890" y="220" as="targetPoint" />
          </mxGeometry>
        </mxCell>
        <mxCell id="FXYuh853XcJQoHmmgZk7-24" value="Extends" style="endArrow=block;endSize=16;endFill=0;html=1;rounded=0;entryX=0.538;entryY=1;entryDx=0;entryDy=0;entryPerimeter=0;exitX=0.5;exitY=0;exitDx=0;exitDy=0;" edge="1" parent="WIyWlLk6GJQsqaUBKTNV-1" source="FXYuh853XcJQoHmmgZk7-14" target="FXYuh853XcJQoHmmgZk7-4">
          <mxGeometry width="160" relative="1" as="geometry">
            <mxPoint x="80" y="220" as="sourcePoint" />
            <mxPoint x="240" y="220" as="targetPoint" />
          </mxGeometry>
        </mxCell>
        <mxCell id="FXYuh853XcJQoHmmgZk7-26" value="Extends" style="endArrow=block;endSize=16;endFill=0;html=1;rounded=0;entryX=0.581;entryY=1.077;entryDx=0;entryDy=0;entryPerimeter=0;exitX=0.5;exitY=0;exitDx=0;exitDy=0;" edge="1" parent="WIyWlLk6GJQsqaUBKTNV-1" source="FXYuh853XcJQoHmmgZk7-15" target="FXYuh853XcJQoHmmgZk7-12">
          <mxGeometry width="160" relative="1" as="geometry">
            <mxPoint x="254" y="220" as="sourcePoint" />
            <mxPoint x="414" y="220" as="targetPoint" />
          </mxGeometry>
        </mxCell>
      </root>
    </mxGraphModel>
  </diagram>
</mxfile>
